HIERARCHY
ROOT hip
{
  OFFSET 0 0 0
  CHANNELS 6 Xposition Yposition Zposition Zrotation Yrotation Xrotation
  JOINT abdomen
  {
    OFFSET 0 20.6881 -0.73152
    CHANNELS 3 Zrotation Xrotation Yrotation
    JOINT chest
    {
      OFFSET 0 11.7043 -0.48768
      CHANNELS 3 Zrotation Xrotation Yrotation
      JOINT neck
      {
        OFFSET 0 22.1894 -2.19456
        CHANNELS 3 Zrotation Xrotation Yrotation
        JOINT head
        {
          OFFSET -0.24384 7.07133 1.2192
          CHANNELS 3 Zrotation Xrotation Yrotation
          JOINT leftEye
          {
            OFFSET 4.14528 8.04674 8.04672
            CHANNELS 3 Zrotation Xrotation Yrotation
            End Site
            {
              OFFSET 1 0 0
            }
          }
          JOINT rightEye
          {
            OFFSET -3.6576 8.04674 8.04672
            CHANNELS 3 Zrotation Xrotation Yrotation
            End Site
            {
              OFFSET 1 0 0
            }
          }
        }
      }
      JOINT rCollar
      {
        OFFSET -2.68224 19.2634 -4.8768
        CHANNELS 3 Zrotation Xrotation Yrotation
        JOINT rShldr
        {
          OFFSET -8.77824 -1.95073 1.46304
          CHANNELS 3 Zrotation Xrotation Yrotation
          JOINT rForeArm
          {
            OFFSET -28.1742 -1.7115 0.48768
            CHANNELS 3 Zrotation Xrotation Yrotation
            JOINT rHand
            {
              OFFSET -22.5879 0.773209 7.07136
              CHANNELS 3 Zrotation Xrotation Yrotation
              JOINT rThumb1
              {
                OFFSET -1.2192 -0.487915 3.41376
                CHANNELS 3 Zrotation Xrotation Yrotation
                JOINT rThumb2
                {
                  OFFSET -3.37035 -0.52449 3.41376
                  CHANNELS 3 Zrotation Xrotation Yrotation
                  End Site
                  {
                    OFFSET -1.78271 -1.18214 1.43049
                  }
                }
              }
              JOINT rIndex1
              {
                OFFSET -7.75947 0.938293 5.60832
                CHANNELS 3 Zrotation Xrotation Yrotation
                JOINT rIndex2
                {
                  OFFSET -2.54057 -0.884171 1.56538
                  CHANNELS 3 Zrotation Xrotation Yrotation
                  End Site
                  {
                    OFFSET -1.62519 -0.234802 1.16502
                  }
                }
              }
              JOINT rMid1
              {
                OFFSET -8.24714 1.18213 3.41376
                CHANNELS 3 Zrotation Xrotation Yrotation
                JOINT rMid2
                {
                  OFFSET -3.10165 -0.590103 1.0647
                  CHANNELS 3 Zrotation Xrotation Yrotation
                  End Site
                  {
                    OFFSET -2.48547 -0.328903 0.83742
                  }
                }
              }
              JOINT rRing1
              {
                OFFSET -8.82822 0.546677 1.51678
                CHANNELS 3 Zrotation Xrotation Yrotation
                JOINT rRing2
                {
                  OFFSET -2.60934 -0.819778 -0.0198488
                  CHANNELS 3 Zrotation Xrotation Yrotation
                  End Site
                  {
                    OFFSET -2.33842 -0.294052 0.168128
                  }
                }
              }
              JOINT rPinky1
              {
                OFFSET -8.27202 -0.0477905 -0.4584
                CHANNELS 3 Zrotation Xrotation Yrotation
                JOINT rPinky2
                {
                  OFFSET -1.82734 -0.647385 -0.700984
                  CHANNELS 3 Zrotation Xrotation Yrotation
                  End Site
                  {
                    OFFSET -1.69225 -0.51767 -0.607171
                  }
                }
              }
            }
          }
        }
      }
      JOINT lCollar
      {
        OFFSET 2.68224 19.2634 -4.8768
        CHANNELS 3 Zrotation Xrotation Yrotation
        JOINT lShldr
        {
          OFFSET 8.77824 -1.95073 1.46304
          CHANNELS 3 Zrotation Xrotation Yrotation
          JOINT lForeArm
          {
            OFFSET 28.1742 -1.7115 0.48768
            CHANNELS 3 Zrotation Xrotation Yrotation
            JOINT lHand
            {
              OFFSET 22.5879 0.773209 7.07136
              CHANNELS 3 Zrotation Xrotation Yrotation
              JOINT lThumb1
              {
                OFFSET 1.2192 -0.487915 3.41376
                CHANNELS 3 Zrotation Xrotation Yrotation
                JOINT lThumb2
                {
                  OFFSET 3.37035 -0.52449 3.41376
                  CHANNELS 3 Zrotation Xrotation Yrotation
                  End Site
                  {
                    OFFSET 1.78271 -1.18214 1.43049
                  }
                }
              }
              JOINT lIndex1
              {
                OFFSET 7.75947 0.938293 5.60832
                CHANNELS 3 Zrotation Xrotation Yrotation
                JOINT lIndex2
                {
                  OFFSET 2.54057 -0.884171 1.56538
                  CHANNELS 3 Zrotation Xrotation Yrotation
                  End Site
                  {
                    OFFSET 1.62519 -0.234802 1.16502
                  }
                }
              }
              JOINT lMid1
              {
                OFFSET 8.24714 1.18213 3.41376
                CHANNELS 3 Zrotation Xrotation Yrotation
                JOINT lMid2
                {
                  OFFSET 3.10165 -0.590103 1.0647
                  CHANNELS 3 Zrotation Xrotation Yrotation
                  End Site
                  {
                    OFFSET 2.48547 -0.328903 0.83742
                  }
                }
              }
              JOINT lRing1
              {
                OFFSET 8.82822 0.546677 1.51678
                CHANNELS 3 Zrotation Xrotation Yrotation
                JOINT lRing2
                {
                  OFFSET 2.60934 -0.819778 -0.0198488
                  CHANNELS 3 Zrotation Xrotation Yrotation
                  End Site
                  {
                    OFFSET 2.33842 -0.294052 0.168128
                  }
                }
              }
              JOINT lPinky1
              {
                OFFSET 8.27202 -0.0477905 -0.4584
                CHANNELS 3 Zrotation Xrotation Yrotation
                JOINT lPinky2
                {
                  OFFSET 1.82734 -0.647385 -0.700984
                  CHANNELS 3 Zrotation Xrotation Yrotation
                  End Site
                  {
                    OFFSET 1.69225 -0.51767 -0.607171
                  }
                }
              }
            }
          }
        }
      }
    }
  }
  JOINT rButtock
  {
    OFFSET -8.77824 4.35084 1.2192
    CHANNELS 3 Zrotation Xrotation Yrotation
    JOINT rThigh
    {
      OFFSET 0 -1.70687 -2.19456
      CHANNELS 3 Zrotation Xrotation Yrotation
      JOINT rShin
      {
        OFFSET 0 -36.8199 0.73152
        CHANNELS 3 Zrotation Xrotation Yrotation
        JOINT rFoot
        {
          OFFSET 0.73152 -45.1104 -5.12064
          CHANNELS 3 Zrotation Xrotation Yrotation
          End Site
          {
            OFFSET -1.1221 -3.69964 12.103
          }
        }
      }
    }
  }
  JOINT lButtock
  {
    OFFSET 8.77824 4.35084 1.2192
    CHANNELS 3 Zrotation Xrotation Yrotation
    JOINT lThigh
    {
      OFFSET 0 -1.70687 -2.19456
      CHANNELS 3 Zrotation Xrotation Yrotation
      JOINT lShin
      {
        OFFSET 0 -36.8199 0.73152
        CHANNELS 3 Zrotation Xrotation Yrotation
        JOINT lFoot
        {
          OFFSET -0.73152 -45.1104 -5.12064
          CHANNELS 3 Zrotation Xrotation Yrotation
          End Site
          {
            OFFSET 1.1221 -3.69964 12.103
          }
        }
      }
    }
  }
}
MOTION
Frames:	8
Frame Time:	0.00833333
145.9218 83.554695 6.03138 -176.74 -59.411003 -177.80002 9.352555 -5.03123 1.043208 -0.1679513 0.0711083 0.14880136 -1.3341321 9.708065 1.9341915 -1.3439229 -1.758268 2.54873 -0.0 0.0 -0.0 -0.0 0.0 -0.0 -0.0 0.0 -0.0 88.222786 35.355705 -14.381992 -28.396503 -34.2183 74.058205 -0.056378245 6.760087 0.9545478 0.0 0.0 0.0 0.0 0.0 0.0 0.0 0.0 0.0 7.7309012 5.4749126 0.41732216 0.0 0.0 0.0 2.9055667 0.9650755 0.103008196 0.0 0.0 0.0 10.278597 0.731881 0.026273511 0.0 0.0 0.0 2.2216635 -0.73345095 -0.208321 -0.0 0.0 -0.0 -16.527405 -7.914908 -26.167591 27.704298 -29.018394 -65.690605 34.979008 -78.20446 42.36351 0.0 0.0 -0.0 0.0 0.0 -0.0 0.0 0.0 -0.0 -7.7309012 5.4749126 -0.41732216 0.0 0.0 -0.0 -2.9055667 0.9650755 -0.103008196 0.0 0.0 -0.0 -10.278597 0.731881 -0.026273511 0.0 0.0 -0.0 -2.2216635 -0.73345095 0.208321 -0.0 0.0 -0.0 4.295461 -22.917192 6.000366 -0.09953425 27.874054 0.401086 -2.8267856 -11.498406 -8.693517 0.0 0.0 0.0 3.4696748 -17.32509 7.306724 0.16728581 30.786373 -0.6076044 4.3909874 -17.401884 10.236107
145.6993 82.8716 7.53655 179.4899 -60.233 -173.69992 7.316384 -4.121615 -1.2698593 1.1621895 -0.029291004 -0.4990139 -0.49750978 9.43057 1.6627647 -4.3762636 -1.4548073 1.8196517 -0.0 0.0 -0.0 -0.0 0.0 -0.0 -0.0 -0.0 -0.0 89.463005 35.341698 -15.737501 -28.3895 -34.093407 73.856 -0.07957416 8.021767 1.1348286 0.0 0.0 -0.0 0.0 0.0 -0.0 0.0 0.0 -0.0 7.7309012 5.4749126 0.41732216 0.0 0.0 -0.0 2.9055667 0.9650755 0.103008196 0.0 0.0 -0.0 10.278597 0.731881 0.026273511 0.0 0.0 -0.0 2.2216635 -0.73345095 -0.208321 -0.0 -0.0 -0.0 -13.888304 -16.871094 -27.841108 25.876698 -23.115808 -56.093704 24.287664 -74.87545 31.377724 -0.0 0.0 -0.0 -0.0 0.0 -0.0 -0.0 0.0 -0.0 -7.7309012 5.4749126 -0.41732216 -0.0 0.0 -0.0 -2.9055667 0.9650755 -0.103008196 -0.0 0.0 -0.0 -10.278597 0.731881 -0.026273511 -0.0 0.0 -0.0 -2.2216635 -0.73345095 0.208321 -0.0 0.0 -0.0 -1.1853129 -29.845795 2.149449 -0.28171825 37.42869 0.61362004 -1.5809046 -10.7897215 -4.07178 0.0 0.0 0.0 -1.0445167 -16.5818 5.6741056 0.12541585 27.5868 -0.593824 5.2731314 -18.132277 12.300705
145.9651 82.477806 8.84072 178.34006 -58.655003 -172.06995 7.1022468 -2.7715266 -2.0572991 1.6264135 -0.16084069 -0.71611434 0.13566408 9.024216 1.9338828 -6.7939944 -1.2171599 2.2031193 -0.0 0.0 -0.0 -0.0 0.0 -0.0 -0.0 0.0 -0.0 90.4385 36.2226 -17.473797 -28.352602 -33.501404 72.87979 -0.1194464 9.807324 1.392168 0.0 0.0 0.0 0.0 0.0 0.0 0.0 0.0 0.0 7.7309012 5.4749126 0.41732216 0.0 0.0 0.0 2.9055667 0.9650755 0.103008196 0.0 0.0 0.0 10.278597 0.731881 0.026273511 0.0 0.0 0.0 2.2216635 -0.73345095 -0.208321 -0.0 0.0 -0.0 -12.758309 -25.163706 -31.07791 23.2837 -17.8255 -47.37709 11.521115 -65.38444 17.865896 -0.0 -0.0 -0.0 -0.0 -0.0 -0.0 -0.0 -0.0 -0.0 -7.7309012 5.4749126 -0.41732216 -0.0 -0.0 -0.0 -2.9055667 0.9650755 -0.103008196 -0.0 -0.0 -0.0 -10.278597 0.731881 -0.026273511 -0.0 -0.0 -0.0 -2.2216635 -0.73345095 0.208321 -0.0 0.0 -0.0 -7.517034 -38.746502 -4.2949986 -0.5273642 47.439293 0.868507 0.18251817 -1.442848 5.1867023 0.0 0.0 0.0 -1.2668751 -18.727589 9.90626 0.1280944 28.995596 -0.64321345 4.6417513 -18.939096 10.572211
146.3512 82.2369 9.93883 177.92998 -54.98901 -170.60991 6.5857754 -1.6624562 -2.9107265 2.2641423 -0.1382226 -0.9452642 1.0820743 8.563057 2.923485 -9.009461 -1.3077551 3.9648178 -0.0 0.0 -0.0 -0.0 0.0 -0.0 -0.0 -0.0 -0.0 90.2127 38.396 -18.743801 -28.308088 -32.97681 72.03199 -0.18584676 12.641704 1.8047035 -0.0 -0.0 -0.0 -0.0 -0.0 -0.0 -0.0 -0.0 -0.0 7.7309012 5.4749126 0.41732216 -0.0 -0.0 -0.0 2.9055667 0.9650755 0.103008196 -0.0 -0.0 -0.0 10.278597 0.731881 0.026273511 -0.0 -0.0 -0.0 2.2216635 -0.73345095 -0.208321 -0.0 -0.0 -0.0 -8.847393 -30.90836 -32.153034 20.670713 -13.880672 -40.332798 4.424904 -49.83611 9.554465 0.0 0.0 0.0 0.0 0.0 0.0 0.0 0.0 0.0 -7.7309012 5.4749126 -0.41732216 0.0 0.0 0.0 -2.9055667 0.9650755 -0.103008196 0.0 0.0 0.0 -10.278597 0.731881 -0.026273511 0.0 0.0 0.0 -2.2216635 -0.73345095 0.208321 -0.0 0.0 -0.0 -14.278997 -46.4661 -11.611704 -0.76482165 54.4258 1.2103198 -1.0731202 9.049436 11.827476 0.0 0.0 0.0 -2.602681 -18.910307 10.441987 0.08219141 27.031994 -0.658632 4.9396634 -18.0471 12.0099945
146.66719 82.4791 10.25002 179.05992 -51.544987 -170.72005 6.750669 -1.2450414 -4.115078 2.8838785 0.004509002 -1.2916412 1.7583835 7.9110413 4.4122057 -10.309174 -0.33269665 6.7485356 -0.0 0.0 -0.0 -0.0 0.0 -0.0 -0.0 -0.0 -0.0 89.3266 39.6711 -19.065502 -28.276806 -32.656693 71.51479 -0.294537 15.263698 2.1978662 -0.0 -0.0 -0.0 -0.0 -0.0 -0.0 -0.0 -0.0 -0.0 7.7309012 5.4749126 0.41732216 -0.0 -0.0 -0.0 2.9055667 0.9650755 0.103008196 -0.0 -0.0 -0.0 10.278597 0.731881 0.026273511 -0.0 -0.0 -0.0 2.2216635 -0.73345095 -0.208321 -0.0 -0.0 -0.0 -3.3606765 -33.745697 -32.468494 18.168488 -10.875422 -34.3835 2.1097987 -37.538925 6.202973 0.0 0.0 -0.0 0.0 0.0 -0.0 0.0 0.0 -0.0 -7.7309012 5.4749126 -0.41732216 0.0 0.0 -0.0 -2.9055667 0.9650755 -0.103008196 0.0 0.0 -0.0 -10.278597 0.731881 -0.026273511 0.0 0.0 -0.0 -2.2216635 -0.73345095 0.208321 -0.0 0.0 -0.0 -16.59411 -51.184494 -15.294222 -0.9168301 57.07529 1.2718077 -0.53248006 9.158651 0.667877 0.0 0.0 0.0 -2.7096243 -19.558908 10.309396 0.057711072 26.070894 -0.69216186 5.8469796 -17.466404 14.786797
146.95601 82.9726 10.263361 -179.24004 -47.992996 -170.89009 7.42483 -1.585935 -5.07609 3.149721 -0.19919862 -1.576957 2.4377234 8.804023 5.880635 -12.171115 -1.0705811 9.359086 -0.0 0.0 -0.0 -0.0 0.0 -0.0 -0.0 -0.0 -0.0 88.74989 39.84489 -19.4033 -28.30069 -32.899094 71.90679 -0.3013142 15.432607 2.223528 -0.0 0.0 -0.0 -0.0 0.0 -0.0 -0.0 0.0 -0.0 7.7309012 5.4749126 0.41732216 -0.0 0.0 -0.0 2.9055667 0.9650755 0.103008196 -0.0 0.0 -0.0 10.278597 0.731881 0.026273511 -0.0 0.0 -0.0 2.2216635 -0.73345095 -0.208321 -0.0 -0.0 -0.0 4.729155 -30.858488 -31.421791 16.260906 -8.9307 -30.2295 0.84894943 -25.4307 3.8246222 0.0 0.0 -0.0 0.0 0.0 -0.0 0.0 0.0 -0.0 -7.7309012 5.4749126 -0.41732216 0.0 0.0 -0.0 -2.9055667 0.9650755 -0.103008196 0.0 0.0 -0.0 -10.278597 0.731881 -0.026273511 0.0 0.0 -0.0 -2.2216635 -0.73345095 0.208321 -0.0 0.0 -0.0 -13.199827 -52.398003 -11.099529 -0.6966797 52.1486 1.0136476 -0.49915394 10.479505 0.12142178 0.0 0.0 0.0 -1.2639542 -19.674599 12.235896 0.04618981 24.581501 -0.67666227 6.149402 -16.826195 16.068794
147.02881 83.3215 9.67259 -177.77998 -44.841007 -171.53009 7.6525717 -1.8958485 -6.272993 3.8483927 0.008590584 -1.9488614 3.6439745 8.905417 7.6425467 -14.367017 -0.6552806 12.56772 -0.0 0.0 -0.0 -0.0 0.0 -0.0 -0.0 0.0 -0.0 87.4219 39.925396 -18.5353 -28.345592 -33.419292 72.75069 -0.27903533 14.867791 2.138303 0.0 0.0 -0.0 0.0 0.0 -0.0 0.0 0.0 -0.0 7.7309012 5.4749126 0.41732216 0.0 0.0 -0.0 2.9055667 0.9650755 0.103008196 0.0 0.0 -0.0 10.278597 0.731881 0.026273511 0.0 0.0 -0.0 2.2216635 -0.73345095 -0.208321 -0.0 0.0 -0.0 10.293696 -28.173096 -32.223503 14.816307 -7.632842 -27.210207 0.47597504 -19.222155 2.8102808 -0.0 -0.0 -0.0 -0.0 -0.0 -0.0 -0.0 -0.0 -0.0 -7.7309012 5.4749126 -0.41732216 -0.0 -0.0 -0.0 -2.9055667 0.9650755 -0.103008196 -0.0 -0.0 -0.0 -10.278597 0.731881 -0.026273511 -0.0 -0.0 -0.0 -2.2216635 -0.73345095 0.208321 -0.0 0.0 -0.0 -6.2222424 -48.907795 -2.2310088 -0.4371158 43.89329 0.72385585 -0.95646495 13.699797 3.4838119 0.0 0.0 0.0 -0.12225359 -19.217106 12.171106 0.060659472 24.060587 -0.65223074 7.030528 -16.78801 18.167189
146.8154 83.3272 8.91054 -176.81001 -42.811005 -172.59993 8.86434 -2.2590656 -7.151597 4.0774736 0.23543021 -2.2501175 4.1177163 9.119312 8.976438 -15.658095 0.95778 15.026885 -0.0 0.0 -0.0 -0.0 0.0 -0.0 -0.0 0.0 0.0 85.8593 39.9667 -16.731802 -28.381199 -33.93451 73.59061 -0.26181477 14.414381 2.0701659 -0.0 -0.0 -0.0 -0.0 -0.0 -0.0 -0.0 -0.0 -0.0 7.7309012 5.4749126 0.41732216 -0.0 -0.0 -0.0 2.9055667 0.9650755 0.103008196 -0.0 -0.0 -0.0 10.278597 0.731881 0.026273511 -0.0 -0.0 -0.0 2.2216635 -0.73345095 -0.208321 -0.0 0.0 0.0 9.647561 -28.589893 -37.4093 13.694604 -6.7118535 -24.939505 0.22825576 -13.483541 1.9307189 0.0 0.0 -0.0 0.0 0.0 -0.0 0.0 0.0 -0.0 -7.7309012 5.4749126 -0.41732216 0.0 0.0 -0.0 -2.9055667 0.9650755 -0.103008196 0.0 0.0 -0.0 -10.278597 0.731881 -0.026273511 0.0 0.0 -0.0 -2.2216635 -0.73345095 0.208321 -0.0 0.0 -0.0 -0.66150045 -42.862995 2.654709 -0.28397065 36.455093 0.47500688 -0.5645194 8.826565 1.5280745 0.0 0.0 0.0 1.8335445 -19.826265 12.33165 0.1031165 26.672092 -0.6775628 8.400275 -17.500698 20.5194
